<mxfile host="app.diagrams.net" agent="Mozilla/5.0 (Windows NT 10.0; Win64; x64; rv:136.0) Gecko/20100101 Firefox/136.0" version="28.0.6">
  <diagram name="Page-1" id="4zDZfXnHKPZ7NhKod1eE">
    <mxGraphModel dx="2008" dy="1734" grid="1" gridSize="10" guides="1" tooltips="1" connect="1" arrows="1" fold="1" page="1" pageScale="1" pageWidth="850" pageHeight="1100" math="0" shadow="0">
      <root>
        <mxCell id="0" />
        <mxCell id="1" parent="0" />
        <mxCell id="ac3OttQ5r9UJf8FcVnDB-60" value="" style="rounded=0;whiteSpace=wrap;html=1;" vertex="1" parent="1">
          <mxGeometry x="-200" y="-400" width="3510" height="480" as="geometry" />
        </mxCell>
        <mxCell id="ac3OttQ5r9UJf8FcVnDB-36" value="" style="rounded=0;whiteSpace=wrap;html=1;fillColor=#dae8fc;strokeColor=#6c8ebf;" vertex="1" parent="1">
          <mxGeometry x="-167.5" y="230" width="1187.5" height="840" as="geometry" />
        </mxCell>
        <mxCell id="ac3OttQ5r9UJf8FcVnDB-20" value="" style="rounded=0;whiteSpace=wrap;html=1;" vertex="1" parent="1">
          <mxGeometry x="427.5" y="530" width="265" height="120" as="geometry" />
        </mxCell>
        <mxCell id="ac3OttQ5r9UJf8FcVnDB-4" value="" style="rounded=0;whiteSpace=wrap;html=1;" vertex="1" parent="1">
          <mxGeometry x="135" y="250" width="240" height="250" as="geometry" />
        </mxCell>
        <mxCell id="ac3OttQ5r9UJf8FcVnDB-1" value="[The alchemist is hunched over a thick, dust-covered tome, muttering to herself about sporelings, myconids and... explosives?]" style="rounded=0;whiteSpace=wrap;html=1;" vertex="1" parent="1">
          <mxGeometry x="135" y="130" width="240" height="80" as="geometry" />
        </mxCell>
        <mxCell id="ac3OttQ5r9UJf8FcVnDB-2" value="Salvie_Npc_Stage1_1" style="rounded=0;whiteSpace=wrap;html=1;" vertex="1" parent="1">
          <mxGeometry x="170" y="110" width="170" height="20" as="geometry" />
        </mxCell>
        <mxCell id="ac3OttQ5r9UJf8FcVnDB-3" value="" style="endArrow=classic;html=1;rounded=0;exitX=0.5;exitY=1;exitDx=0;exitDy=0;entryX=0.5;entryY=0;entryDx=0;entryDy=0;" edge="1" parent="1" source="ac3OttQ5r9UJf8FcVnDB-1" target="ac3OttQ5r9UJf8FcVnDB-8">
          <mxGeometry width="50" height="50" relative="1" as="geometry">
            <mxPoint x="480" y="240" as="sourcePoint" />
            <mxPoint x="260" y="250" as="targetPoint" />
          </mxGeometry>
        </mxCell>
        <mxCell id="ac3OttQ5r9UJf8FcVnDB-5" value="First hunt today. Thought I’d need a potion or two." style="rounded=1;whiteSpace=wrap;html=1;" vertex="1" parent="1">
          <mxGeometry x="147.5" y="290" width="215" height="60" as="geometry" />
        </mxCell>
        <mxCell id="ac3OttQ5r9UJf8FcVnDB-8" value="Salvie_Player_Stage1_2" style="rounded=0;whiteSpace=wrap;html=1;" vertex="1" parent="1">
          <mxGeometry x="170" y="270" width="170" height="20" as="geometry" />
        </mxCell>
        <mxCell id="ac3OttQ5r9UJf8FcVnDB-10" value="" style="endArrow=classic;html=1;rounded=0;exitX=1;exitY=0.5;exitDx=0;exitDy=0;entryX=0;entryY=0.5;entryDx=0;entryDy=0;" edge="1" parent="1" source="ac3OttQ5r9UJf8FcVnDB-5" target="ac3OttQ5r9UJf8FcVnDB-14">
          <mxGeometry width="50" height="50" relative="1" as="geometry">
            <mxPoint x="420" y="320" as="sourcePoint" />
            <mxPoint x="430" y="320" as="targetPoint" />
          </mxGeometry>
        </mxCell>
        <mxCell id="ac3OttQ5r9UJf8FcVnDB-13" value="&lt;div&gt;Salvie_Npc_Stage1_3&lt;/div&gt;" style="rounded=0;whiteSpace=wrap;html=1;" vertex="1" parent="1">
          <mxGeometry x="475" y="260" width="170" height="20" as="geometry" />
        </mxCell>
        <mxCell id="ac3OttQ5r9UJf8FcVnDB-14" value="Potions, huh? I can make them for you, sure." style="rounded=0;whiteSpace=wrap;html=1;" vertex="1" parent="1">
          <mxGeometry x="440" y="280" width="240" height="80" as="geometry" />
        </mxCell>
        <mxCell id="ac3OttQ5r9UJf8FcVnDB-15" value="&lt;div&gt;Salvie_Npc_Stage1_4&lt;/div&gt;" style="rounded=0;whiteSpace=wrap;html=1;" vertex="1" parent="1">
          <mxGeometry x="475" y="400" width="170" height="20" as="geometry" />
        </mxCell>
        <mxCell id="ac3OttQ5r9UJf8FcVnDB-16" value="But it’s really simple once you know the recipe. Let me show you how to make your own. That way, next time you get hurt out there, you won’t have to come running back." style="rounded=0;whiteSpace=wrap;html=1;" vertex="1" parent="1">
          <mxGeometry x="440" y="420" width="240" height="80" as="geometry" />
        </mxCell>
        <mxCell id="ac3OttQ5r9UJf8FcVnDB-17" value="" style="endArrow=classic;html=1;rounded=0;exitX=0.5;exitY=1;exitDx=0;exitDy=0;entryX=0.5;entryY=0;entryDx=0;entryDy=0;" edge="1" parent="1" source="ac3OttQ5r9UJf8FcVnDB-14" target="ac3OttQ5r9UJf8FcVnDB-15">
          <mxGeometry width="50" height="50" relative="1" as="geometry">
            <mxPoint x="730" y="350" as="sourcePoint" />
            <mxPoint x="780" y="300" as="targetPoint" />
          </mxGeometry>
        </mxCell>
        <mxCell id="ac3OttQ5r9UJf8FcVnDB-18" value="Salvie_Player_Stage1_5" style="rounded=0;whiteSpace=wrap;html=1;" vertex="1" parent="1">
          <mxGeometry x="470" y="550" width="170" height="20" as="geometry" />
        </mxCell>
        <mxCell id="ac3OttQ5r9UJf8FcVnDB-19" value="Okay, what do I do?" style="rounded=1;whiteSpace=wrap;html=1;" vertex="1" parent="1">
          <mxGeometry x="447.5" y="570" width="215" height="60" as="geometry" />
        </mxCell>
        <mxCell id="ac3OttQ5r9UJf8FcVnDB-21" value="" style="endArrow=classic;html=1;rounded=0;exitX=0.5;exitY=1;exitDx=0;exitDy=0;entryX=0.5;entryY=0;entryDx=0;entryDy=0;" edge="1" parent="1" source="ac3OttQ5r9UJf8FcVnDB-16" target="ac3OttQ5r9UJf8FcVnDB-20">
          <mxGeometry width="50" height="50" relative="1" as="geometry">
            <mxPoint x="750" y="460" as="sourcePoint" />
            <mxPoint x="800" y="410" as="targetPoint" />
          </mxGeometry>
        </mxCell>
        <mxCell id="ac3OttQ5r9UJf8FcVnDB-22" value="" style="endArrow=classic;html=1;rounded=0;exitX=0.5;exitY=1;exitDx=0;exitDy=0;entryX=0.5;entryY=0;entryDx=0;entryDy=0;" edge="1" parent="1" source="ac3OttQ5r9UJf8FcVnDB-20" target="ac3OttQ5r9UJf8FcVnDB-24">
          <mxGeometry width="50" height="50" relative="1" as="geometry">
            <mxPoint x="630" y="740" as="sourcePoint" />
            <mxPoint x="560" y="680" as="targetPoint" />
          </mxGeometry>
        </mxCell>
        <mxCell id="ac3OttQ5r9UJf8FcVnDB-24" value="&lt;div&gt;Alchemist_Npc_Stage1_6&lt;/div&gt;" style="rounded=0;whiteSpace=wrap;html=1;" vertex="1" parent="1">
          <mxGeometry x="475" y="680" width="170" height="20" as="geometry" />
        </mxCell>
        <mxCell id="ac3OttQ5r9UJf8FcVnDB-25" value="&lt;p data-end=&quot;1651&quot; data-start=&quot;1470&quot;&gt;Right. First, you need to find the ingredients. We’ll need honey and Sundrop petals. &lt;br&gt;&lt;/p&gt;" style="rounded=0;whiteSpace=wrap;html=1;" vertex="1" parent="1">
          <mxGeometry x="440" y="700" width="240" height="80" as="geometry" />
        </mxCell>
        <mxCell id="ac3OttQ5r9UJf8FcVnDB-26" value="&lt;div&gt;Alchemist_Npc_Stage1_7&lt;/div&gt;" style="rounded=0;whiteSpace=wrap;html=1;" vertex="1" parent="1">
          <mxGeometry x="475" y="810" width="170" height="20" as="geometry" />
        </mxCell>
        <mxCell id="ac3OttQ5r9UJf8FcVnDB-27" value="Honey comes from the bees, as you hopefully know. Sundrop grows where there’s plenty of sun. Try looking for it a the knoll." style="rounded=0;whiteSpace=wrap;html=1;" vertex="1" parent="1">
          <mxGeometry x="440" y="830" width="240" height="80" as="geometry" />
        </mxCell>
        <mxCell id="ac3OttQ5r9UJf8FcVnDB-28" value="" style="endArrow=classic;html=1;rounded=0;exitX=0.5;exitY=1;exitDx=0;exitDy=0;entryX=0.5;entryY=0;entryDx=0;entryDy=0;" edge="1" parent="1" source="ac3OttQ5r9UJf8FcVnDB-25" target="ac3OttQ5r9UJf8FcVnDB-26">
          <mxGeometry width="50" height="50" relative="1" as="geometry">
            <mxPoint x="230" y="790" as="sourcePoint" />
            <mxPoint x="280" y="740" as="targetPoint" />
          </mxGeometry>
        </mxCell>
        <mxCell id="ac3OttQ5r9UJf8FcVnDB-29" value="Once you have them, come back and we’ll throw ‘em in the pot." style="rounded=0;whiteSpace=wrap;html=1;" vertex="1" parent="1">
          <mxGeometry x="440" y="960" width="240" height="80" as="geometry" />
        </mxCell>
        <mxCell id="ac3OttQ5r9UJf8FcVnDB-30" value="&lt;div&gt;Alchemist_Npc_Stage1_8&lt;/div&gt;" style="rounded=0;whiteSpace=wrap;html=1;" vertex="1" parent="1">
          <mxGeometry x="475" y="940" width="170" height="20" as="geometry" />
        </mxCell>
        <mxCell id="ac3OttQ5r9UJf8FcVnDB-31" value="" style="endArrow=classic;html=1;rounded=0;exitX=0.5;exitY=1;exitDx=0;exitDy=0;entryX=0.5;entryY=0;entryDx=0;entryDy=0;" edge="1" target="ac3OttQ5r9UJf8FcVnDB-30" parent="1" source="ac3OttQ5r9UJf8FcVnDB-27">
          <mxGeometry width="50" height="50" relative="1" as="geometry">
            <mxPoint x="560" y="930" as="sourcePoint" />
            <mxPoint x="280" y="890" as="targetPoint" />
          </mxGeometry>
        </mxCell>
        <mxCell id="ac3OttQ5r9UJf8FcVnDB-32" value="" style="endArrow=classic;html=1;rounded=0;exitX=1;exitY=0.5;exitDx=0;exitDy=0;" edge="1" parent="1" source="ac3OttQ5r9UJf8FcVnDB-29" target="ac3OttQ5r9UJf8FcVnDB-33">
          <mxGeometry width="50" height="50" relative="1" as="geometry">
            <mxPoint x="740" y="910" as="sourcePoint" />
            <mxPoint x="760" y="1000" as="targetPoint" />
          </mxGeometry>
        </mxCell>
        <mxCell id="ac3OttQ5r9UJf8FcVnDB-33" value="Event: &lt;br&gt;Give tag PotionsForTheTrail.Completed.Stage1" style="shape=hexagon;perimeter=hexagonPerimeter2;whiteSpace=wrap;html=1;fixedSize=1;" vertex="1" parent="1">
          <mxGeometry x="730" y="960" width="270" height="80" as="geometry" />
        </mxCell>
        <mxCell id="ac3OttQ5r9UJf8FcVnDB-34" value="" style="endArrow=classic;html=1;rounded=0;exitX=0;exitY=0.5;exitDx=0;exitDy=0;" edge="1" parent="1" source="ac3OttQ5r9UJf8FcVnDB-5" target="ac3OttQ5r9UJf8FcVnDB-35">
          <mxGeometry width="50" height="50" relative="1" as="geometry">
            <mxPoint x="50" y="300" as="sourcePoint" />
            <mxPoint x="100" y="250" as="targetPoint" />
          </mxGeometry>
        </mxCell>
        <mxCell id="ac3OttQ5r9UJf8FcVnDB-35" value="&lt;div&gt;Condition: &lt;br&gt;No tags match:&lt;/div&gt;&lt;div&gt;PotionsForTheTrail.Completed.Stage1&lt;/div&gt;" style="shape=hexagon;perimeter=hexagonPerimeter2;whiteSpace=wrap;html=1;fixedSize=1;" vertex="1" parent="1">
          <mxGeometry x="-150" y="280" width="230" height="80" as="geometry" />
        </mxCell>
        <mxCell id="ac3OttQ5r9UJf8FcVnDB-37" value="&lt;font style=&quot;font-size: 23px;&quot;&gt;PotionsForTheTrail_Stage1_DialogueCluster&lt;/font&gt;" style="rounded=0;whiteSpace=wrap;html=1;" vertex="1" parent="1">
          <mxGeometry x="520" y="200" width="500" height="30" as="geometry" />
        </mxCell>
        <mxCell id="ac3OttQ5r9UJf8FcVnDB-45" value="&lt;div align=&quot;left&quot;&gt;&lt;font style=&quot;font-size: 17px;&quot;&gt;Journal update:&lt;/font&gt;&lt;/div&gt;&lt;div&gt;&lt;font style=&quot;font-size: 17px;&quot;&gt;&lt;br&gt;&lt;/font&gt;&lt;/div&gt;&lt;font style=&quot;font-size: 17px;&quot;&gt;The alchemist didn’t want to just hand me potions. She prefers to teach me how to make them myself.&lt;br data-end=&quot;251&quot; data-start=&quot;248&quot;&gt;&lt;br&gt;I’ll need to gather honey from the bees, who have their hives in the trees.&lt;br data-end=&quot;329&quot; data-start=&quot;326&quot;&gt;&lt;br&gt;I also need Sundrop petals, which should grow on the sunny knoll behind the mayor’s house.&lt;br data-end=&quot;422&quot; data-start=&quot;419&quot;&gt;&lt;br&gt;If I’m lucky, maybe both the bees and the Sundrop can be found at the knoll.&lt;/font&gt;" style="shape=note;whiteSpace=wrap;html=1;backgroundOutline=1;darkOpacity=0.05;align=left;" vertex="1" parent="1">
          <mxGeometry x="400" y="-340" width="340" height="365" as="geometry" />
        </mxCell>
        <mxCell id="ac3OttQ5r9UJf8FcVnDB-47" value="" style="rounded=0;whiteSpace=wrap;html=1;fillColor=#dae8fc;strokeColor=#6c8ebf;" vertex="1" parent="1">
          <mxGeometry x="1060" y="230" width="1340.19" height="840" as="geometry" />
        </mxCell>
        <mxCell id="ac3OttQ5r9UJf8FcVnDB-48" value="&lt;font style=&quot;font-size: 23px;&quot;&gt;PotionsForTheTrail_Stage2_DialogueCluster&lt;/font&gt;" style="rounded=0;whiteSpace=wrap;html=1;" vertex="1" parent="1">
          <mxGeometry x="1900.19" y="200" width="500" height="30" as="geometry" />
        </mxCell>
        <mxCell id="ac3OttQ5r9UJf8FcVnDB-49" value="[The alchemist is hunched over a thick, dust-covered tome, muttering to herself about sporelings, myconids and... explosives?]" style="rounded=0;whiteSpace=wrap;html=1;" vertex="1" parent="1">
          <mxGeometry x="1440.49" y="120" width="240" height="80" as="geometry" />
        </mxCell>
        <mxCell id="ac3OttQ5r9UJf8FcVnDB-50" value="1" style="rounded=0;whiteSpace=wrap;html=1;" vertex="1" parent="1">
          <mxGeometry x="1475.49" y="100" width="170" height="20" as="geometry" />
        </mxCell>
        <mxCell id="ac3OttQ5r9UJf8FcVnDB-51" value="" style="rounded=0;whiteSpace=wrap;html=1;" vertex="1" parent="1">
          <mxGeometry x="1440.49" y="250" width="240" height="250" as="geometry" />
        </mxCell>
        <mxCell id="ac3OttQ5r9UJf8FcVnDB-52" value="Alchemist_Player_Stage2_9" style="rounded=0;whiteSpace=wrap;html=1;" vertex="1" parent="1">
          <mxGeometry x="1475.49" y="270" width="170" height="20" as="geometry" />
        </mxCell>
        <mxCell id="ac3OttQ5r9UJf8FcVnDB-53" value="I&#39;m ready to start mixing the potion!" style="rounded=1;whiteSpace=wrap;html=1;" vertex="1" parent="1">
          <mxGeometry x="1452.99" y="290" width="215" height="60" as="geometry" />
        </mxCell>
        <mxCell id="ac3OttQ5r9UJf8FcVnDB-54" value="&lt;div&gt;Condition: &lt;br&gt;Any tags match&lt;/div&gt;&lt;div&gt;PotionsForTheTrail.Completed.Stage2&lt;/div&gt;&amp;nbsp;&amp;amp;&amp;amp; &lt;br&gt;No tags match&lt;br&gt;PotionsForTheTrail.Completed.Quest" style="shape=hexagon;perimeter=hexagonPerimeter2;whiteSpace=wrap;html=1;fixedSize=1;" vertex="1" parent="1">
          <mxGeometry x="1120" y="270" width="265.68" height="100" as="geometry" />
        </mxCell>
        <mxCell id="ac3OttQ5r9UJf8FcVnDB-55" value="" style="endArrow=classic;html=1;rounded=0;exitX=0.5;exitY=1;exitDx=0;exitDy=0;entryX=0.5;entryY=0;entryDx=0;entryDy=0;" edge="1" parent="1" source="ac3OttQ5r9UJf8FcVnDB-49" target="ac3OttQ5r9UJf8FcVnDB-51">
          <mxGeometry width="50" height="50" relative="1" as="geometry">
            <mxPoint x="1855.49" y="247" as="sourcePoint" />
            <mxPoint x="1905.49" y="197" as="targetPoint" />
          </mxGeometry>
        </mxCell>
        <mxCell id="ac3OttQ5r9UJf8FcVnDB-57" value="&lt;font style=&quot;font-size: 17px;&quot;&gt;Stage 1:&lt;br&gt;Acquire healing draughts from the alchemist.&lt;/font&gt;" style="rounded=0;whiteSpace=wrap;html=1;fillColor=#fff2cc;strokeColor=#d6b656;" vertex="1" parent="1">
          <mxGeometry x="-130" y="-287.5" width="290" height="260" as="geometry" />
        </mxCell>
        <mxCell id="ac3OttQ5r9UJf8FcVnDB-59" value="" style="shape=flexArrow;endArrow=classic;html=1;rounded=0;exitX=1;exitY=0.5;exitDx=0;exitDy=0;entryX=0;entryY=0.5;entryDx=0;entryDy=0;entryPerimeter=0;" edge="1" parent="1" source="ac3OttQ5r9UJf8FcVnDB-57" target="ac3OttQ5r9UJf8FcVnDB-45">
          <mxGeometry width="50" height="50" relative="1" as="geometry">
            <mxPoint x="260" y="-127.5" as="sourcePoint" />
            <mxPoint x="640" y="-157.5" as="targetPoint" />
          </mxGeometry>
        </mxCell>
        <mxCell id="ac3OttQ5r9UJf8FcVnDB-61" value="&lt;font style=&quot;font-size: 17px;&quot;&gt;Stage 2:&lt;br&gt;Gather:&lt;br&gt;7 Sundrop petals&lt;br&gt;Honey&lt;/font&gt;" style="rounded=0;whiteSpace=wrap;html=1;fillColor=#fff2cc;strokeColor=#d6b656;" vertex="1" parent="1">
          <mxGeometry x="940" y="-280" width="290" height="270" as="geometry" />
        </mxCell>
        <mxCell id="ac3OttQ5r9UJf8FcVnDB-62" value="" style="shape=flexArrow;endArrow=classic;html=1;rounded=0;exitX=0;exitY=0;exitDx=340;exitDy=197.5;exitPerimeter=0;entryX=0;entryY=0.5;entryDx=0;entryDy=0;" edge="1" parent="1" source="ac3OttQ5r9UJf8FcVnDB-45" target="ac3OttQ5r9UJf8FcVnDB-61">
          <mxGeometry width="50" height="50" relative="1" as="geometry">
            <mxPoint x="950" y="160" as="sourcePoint" />
            <mxPoint x="1000" y="110" as="targetPoint" />
          </mxGeometry>
        </mxCell>
        <mxCell id="ac3OttQ5r9UJf8FcVnDB-64" value="" style="endArrow=classic;html=1;rounded=0;entryX=1;entryY=0.5;entryDx=0;entryDy=0;exitX=0;exitY=0.5;exitDx=0;exitDy=0;" edge="1" parent="1" source="ac3OttQ5r9UJf8FcVnDB-53" target="ac3OttQ5r9UJf8FcVnDB-54">
          <mxGeometry width="50" height="50" relative="1" as="geometry">
            <mxPoint x="1505.68" y="620" as="sourcePoint" />
            <mxPoint x="1555.68" y="570" as="targetPoint" />
          </mxGeometry>
        </mxCell>
        <mxCell id="ac3OttQ5r9UJf8FcVnDB-65" value="" style="endArrow=classic;html=1;rounded=0;exitX=1;exitY=0.5;exitDx=0;exitDy=0;" edge="1" parent="1" source="ac3OttQ5r9UJf8FcVnDB-53" target="ac3OttQ5r9UJf8FcVnDB-67">
          <mxGeometry width="50" height="50" relative="1" as="geometry">
            <mxPoint x="1795.68" y="340" as="sourcePoint" />
            <mxPoint x="1845.68" y="290" as="targetPoint" />
          </mxGeometry>
        </mxCell>
        <mxCell id="ac3OttQ5r9UJf8FcVnDB-67" value="Not so fast, youngling! Have you gathered the proper ingredients? …Yes… good." style="rounded=0;whiteSpace=wrap;html=1;" vertex="1" parent="1">
          <mxGeometry x="1765.68" y="280" width="230" height="80" as="geometry" />
        </mxCell>
        <mxCell id="ac3OttQ5r9UJf8FcVnDB-68" value="Alchemist_Npc_Stage2_10" style="rounded=0;whiteSpace=wrap;html=1;" vertex="1" parent="1">
          <mxGeometry x="1795.68" y="260" width="170" height="20" as="geometry" />
        </mxCell>
        <mxCell id="ac3OttQ5r9UJf8FcVnDB-69" value="I assume you haven’t read &lt;em data-end=&quot;370&quot; data-start=&quot;342&quot;&gt;The Encyclopedia Alchemica&lt;/em&gt;, written by one of the finest alchemists this village has ever known; and my personal friend, not to brag... old Master Bryggvar! A shame, really. It’s a riveting read." style="rounded=0;whiteSpace=wrap;html=1;" vertex="1" parent="1">
          <mxGeometry x="1765.68" y="410" width="230" height="100" as="geometry" />
        </mxCell>
        <mxCell id="ac3OttQ5r9UJf8FcVnDB-70" value="According to the book, &lt;span data-end=&quot;1883&quot; data-start=&quot;1874&quot;&gt;we have to grind&lt;/span&gt; the leaves and spores into a fine powder first. No clumps. &lt;br data-end=&quot;2076&quot; data-start=&quot;2073&quot;&gt;&lt;div&gt;&lt;br&gt;&lt;/div&gt;" style="rounded=0;whiteSpace=wrap;html=1;" vertex="1" parent="1">
          <mxGeometry x="1765.68" y="560" width="230" height="80" as="geometry" />
        </mxCell>
        <mxCell id="ac3OttQ5r9UJf8FcVnDB-71" value="It tastes so good, you’ll &lt;em data-end=&quot;1004&quot; data-start=&quot;998&quot;&gt;wish&lt;/em&gt; you were injured just for an excuse to drink it! Ha ha! My mouth waters just thinking about it." style="rounded=0;whiteSpace=wrap;html=1;" vertex="1" parent="1">
          <mxGeometry x="1765.68" y="910" width="230" height="60" as="geometry" />
        </mxCell>
        <mxCell id="ac3OttQ5r9UJf8FcVnDB-72" value="" style="endArrow=classic;html=1;rounded=0;exitX=0.5;exitY=1;exitDx=0;exitDy=0;entryX=0.5;entryY=0;entryDx=0;entryDy=0;" edge="1" parent="1" source="ac3OttQ5r9UJf8FcVnDB-67" target="ac3OttQ5r9UJf8FcVnDB-76">
          <mxGeometry width="50" height="50" relative="1" as="geometry">
            <mxPoint x="2045.68" y="430" as="sourcePoint" />
            <mxPoint x="2095.68" y="380" as="targetPoint" />
          </mxGeometry>
        </mxCell>
        <mxCell id="ac3OttQ5r9UJf8FcVnDB-76" value="Alchemist_Npc_Stage2_11" style="rounded=0;whiteSpace=wrap;html=1;" vertex="1" parent="1">
          <mxGeometry x="1795.68" y="390" width="170" height="20" as="geometry" />
        </mxCell>
        <mxCell id="ac3OttQ5r9UJf8FcVnDB-78" value="Alchemist_Npc_Stage2_12" style="rounded=0;whiteSpace=wrap;html=1;" vertex="1" parent="1">
          <mxGeometry x="1795.68" y="540" width="170" height="20" as="geometry" />
        </mxCell>
        <mxCell id="ac3OttQ5r9UJf8FcVnDB-82" value="" style="endArrow=classic;html=1;rounded=0;exitX=0.5;exitY=1;exitDx=0;exitDy=0;entryX=0.5;entryY=0;entryDx=0;entryDy=0;" edge="1" parent="1" source="ac3OttQ5r9UJf8FcVnDB-70" target="ac3OttQ5r9UJf8FcVnDB-87">
          <mxGeometry width="50" height="50" relative="1" as="geometry">
            <mxPoint x="2095.68" y="730" as="sourcePoint" />
            <mxPoint x="1880.68" y="780" as="targetPoint" />
          </mxGeometry>
        </mxCell>
        <mxCell id="ac3OttQ5r9UJf8FcVnDB-83" value="Alchemist_Npc_Stage2_15" style="rounded=0;whiteSpace=wrap;html=1;" vertex="1" parent="1">
          <mxGeometry x="1795.68" y="890" width="170" height="20" as="geometry" />
        </mxCell>
        <mxCell id="ac3OttQ5r9UJf8FcVnDB-84" value="Then &lt;span data-end=&quot;1992&quot; data-start=&quot;1967&quot;&gt;add the powder slowly&lt;/span&gt; to the heated cauldron while stirring &lt;span data-end=&quot;2042&quot; data-start=&quot;2031&quot;&gt;clockwise&lt;/span&gt;. Yes, the direction matters..." style="rounded=0;whiteSpace=wrap;html=1;" vertex="1" parent="1">
          <mxGeometry x="1765.68" y="690" width="230" height="60" as="geometry" />
        </mxCell>
        <mxCell id="ac3OttQ5r9UJf8FcVnDB-85" value="Keep the flame &lt;span data-end=&quot;2099&quot; data-start=&quot;2091&quot;&gt;gentle&lt;/span&gt;. This isn’t a stew. Let the mix bubble, not boil. When it turns golden and gives off a gentle, comforting smell, it&#39;s done!" style="rounded=0;whiteSpace=wrap;html=1;" vertex="1" parent="1">
          <mxGeometry x="1765.68" y="800" width="230" height="60" as="geometry" />
        </mxCell>
        <mxCell id="ac3OttQ5r9UJf8FcVnDB-87" value="Alchemist_Npc_Stage2_13" style="rounded=0;whiteSpace=wrap;html=1;" vertex="1" parent="1">
          <mxGeometry x="1795.68" y="670" width="170" height="20" as="geometry" />
        </mxCell>
        <mxCell id="ac3OttQ5r9UJf8FcVnDB-88" value="Alchemist_Npc_Stage2_14" style="rounded=0;whiteSpace=wrap;html=1;" vertex="1" parent="1">
          <mxGeometry x="1795.68" y="780" width="170" height="20" as="geometry" />
        </mxCell>
        <mxCell id="ac3OttQ5r9UJf8FcVnDB-89" value="" style="endArrow=classic;html=1;rounded=0;exitX=0.5;exitY=1;exitDx=0;exitDy=0;entryX=0.5;entryY=0;entryDx=0;entryDy=0;" edge="1" parent="1" source="ac3OttQ5r9UJf8FcVnDB-84" target="ac3OttQ5r9UJf8FcVnDB-88">
          <mxGeometry width="50" height="50" relative="1" as="geometry">
            <mxPoint x="2055.68" y="780" as="sourcePoint" />
            <mxPoint x="2105.68" y="730" as="targetPoint" />
          </mxGeometry>
        </mxCell>
        <mxCell id="ac3OttQ5r9UJf8FcVnDB-90" value="" style="endArrow=classic;html=1;rounded=0;exitX=0.5;exitY=1;exitDx=0;exitDy=0;entryX=0.5;entryY=0;entryDx=0;entryDy=0;" edge="1" parent="1" source="ac3OttQ5r9UJf8FcVnDB-85" target="ac3OttQ5r9UJf8FcVnDB-83">
          <mxGeometry width="50" height="50" relative="1" as="geometry">
            <mxPoint x="1965.68" y="980" as="sourcePoint" />
            <mxPoint x="2015.68" y="930" as="targetPoint" />
          </mxGeometry>
        </mxCell>
        <mxCell id="ac3OttQ5r9UJf8FcVnDB-91" value="" style="endArrow=classic;html=1;rounded=0;exitX=1;exitY=0.5;exitDx=0;exitDy=0;entryX=0;entryY=0.5;entryDx=0;entryDy=0;" edge="1" parent="1" source="ac3OttQ5r9UJf8FcVnDB-71" target="ac3OttQ5r9UJf8FcVnDB-92">
          <mxGeometry width="50" height="50" relative="1" as="geometry">
            <mxPoint x="1995.68" y="910" as="sourcePoint" />
            <mxPoint x="2045.68" y="860" as="targetPoint" />
          </mxGeometry>
        </mxCell>
        <mxCell id="ac3OttQ5r9UJf8FcVnDB-92" value="Event:&lt;br&gt;Give tag: PotionsForTheTrail Stage 3 completed" style="shape=hexagon;perimeter=hexagonPerimeter2;whiteSpace=wrap;html=1;fixedSize=1;" vertex="1" parent="1">
          <mxGeometry x="2075.68" y="900" width="250" height="80" as="geometry" />
        </mxCell>
        <mxCell id="ac3OttQ5r9UJf8FcVnDB-93" value="" style="endArrow=classic;html=1;rounded=0;exitX=0.5;exitY=1;exitDx=0;exitDy=0;entryX=0.5;entryY=0;entryDx=0;entryDy=0;" edge="1" parent="1" source="ac3OttQ5r9UJf8FcVnDB-69" target="ac3OttQ5r9UJf8FcVnDB-78">
          <mxGeometry width="50" height="50" relative="1" as="geometry">
            <mxPoint x="2180" y="480" as="sourcePoint" />
            <mxPoint x="2230" y="430" as="targetPoint" />
          </mxGeometry>
        </mxCell>
        <mxCell id="ac3OttQ5r9UJf8FcVnDB-94" value="" style="shape=flexArrow;endArrow=classic;html=1;rounded=0;exitX=1;exitY=0.5;exitDx=0;exitDy=0;entryX=0;entryY=0.5;entryDx=0;entryDy=0;" edge="1" parent="1" source="ac3OttQ5r9UJf8FcVnDB-61" target="ac3OttQ5r9UJf8FcVnDB-95">
          <mxGeometry width="50" height="50" relative="1" as="geometry">
            <mxPoint x="1400" y="-180" as="sourcePoint" />
            <mxPoint x="1450" y="-230" as="targetPoint" />
          </mxGeometry>
        </mxCell>
        <mxCell id="ac3OttQ5r9UJf8FcVnDB-95" value="&lt;font style=&quot;font-size: 17px;&quot;&gt;Stage 3:Let the alchemist teach you the recipe.&lt;/font&gt;" style="rounded=0;whiteSpace=wrap;html=1;fillColor=#fff2cc;strokeColor=#d6b656;" vertex="1" parent="1">
          <mxGeometry x="1600" y="-280" width="290" height="270" as="geometry" />
        </mxCell>
        <mxCell id="ac3OttQ5r9UJf8FcVnDB-96" value="" style="shape=flexArrow;endArrow=classic;html=1;rounded=0;exitX=1;exitY=0.5;exitDx=0;exitDy=0;entryX=0;entryY=0.5;entryDx=0;entryDy=0;" edge="1" parent="1" source="ac3OttQ5r9UJf8FcVnDB-95" target="ac3OttQ5r9UJf8FcVnDB-98">
          <mxGeometry width="50" height="50" relative="1" as="geometry">
            <mxPoint x="1830" y="-180" as="sourcePoint" />
            <mxPoint x="1880" y="-230" as="targetPoint" />
          </mxGeometry>
        </mxCell>
        <mxCell id="ac3OttQ5r9UJf8FcVnDB-97" value="&lt;font style=&quot;font-size: 15px;&quot;&gt;Give tag: PotionsForTheTrail.Completed.Stage2&lt;/font&gt;" style="text;html=1;align=center;verticalAlign=middle;whiteSpace=wrap;rounded=0;" vertex="1" parent="1">
          <mxGeometry x="1275" y="-270" width="285" height="120" as="geometry" />
        </mxCell>
        <mxCell id="ac3OttQ5r9UJf8FcVnDB-98" value="&lt;font style=&quot;font-size: 17px;&quot;&gt;Stage 4: Craft the potion.&lt;/font&gt;" style="rounded=0;whiteSpace=wrap;html=1;fillColor=#fff2cc;strokeColor=#d6b656;" vertex="1" parent="1">
          <mxGeometry x="2250" y="-280" width="290" height="270" as="geometry" />
        </mxCell>
        <mxCell id="ac3OttQ5r9UJf8FcVnDB-100" value="&lt;font style=&quot;font-size: 15px;&quot;&gt;Add recipe to alchemy bench/ cauldron:&lt;/font&gt;&lt;div&gt;&lt;font style=&quot;font-size: 15px;&quot;&gt;Mending sunbrew&lt;/font&gt;&lt;/div&gt;" style="text;html=1;align=center;verticalAlign=middle;whiteSpace=wrap;rounded=0;" vertex="1" parent="1">
          <mxGeometry x="1930" y="-270" width="285" height="120" as="geometry" />
        </mxCell>
        <mxCell id="ac3OttQ5r9UJf8FcVnDB-101" value="" style="shape=flexArrow;endArrow=classic;html=1;rounded=0;exitX=1;exitY=0.5;exitDx=0;exitDy=0;entryX=0;entryY=0.5;entryDx=0;entryDy=0;entryPerimeter=0;" edge="1" parent="1" source="ac3OttQ5r9UJf8FcVnDB-98" target="ac3OttQ5r9UJf8FcVnDB-102">
          <mxGeometry width="50" height="50" relative="1" as="geometry">
            <mxPoint x="2710" y="-140" as="sourcePoint" />
            <mxPoint x="2750" y="-145" as="targetPoint" />
          </mxGeometry>
        </mxCell>
        <mxCell id="ac3OttQ5r9UJf8FcVnDB-102" value="&lt;div align=&quot;left&quot;&gt;&lt;font style=&quot;font-size: 17px;&quot;&gt;Journal update:&lt;/font&gt;&lt;/div&gt;&lt;div&gt;&lt;font style=&quot;font-size: 17px;&quot;&gt;&lt;br&gt;&lt;/font&gt;&lt;/div&gt;&lt;p data-end=&quot;421&quot; data-start=&quot;269&quot;&gt;&lt;font style=&quot;font-size: 17px;&quot;&gt;I learned how to make the &lt;span data-end=&quot;314&quot; data-start=&quot;295&quot;&gt;Mending Sunbrew.&lt;/span&gt; It&#39;s a simple healing potion made from honey and Sundrop petals, rumored to taste so pleasant, I might actually look forward to getting hurt,&lt;/font&gt;&lt;/p&gt;&lt;font style=&quot;font-size: 17px;&quot;&gt;&lt;br&gt;Maybe I’ll scrape my knee on purpose later… just to check.&lt;/font&gt;" style="shape=note;whiteSpace=wrap;html=1;backgroundOutline=1;darkOpacity=0.05;align=left;" vertex="1" parent="1">
          <mxGeometry x="2910" y="-327.5" width="340" height="365" as="geometry" />
        </mxCell>
        <mxCell id="ac3OttQ5r9UJf8FcVnDB-103" value="&lt;font style=&quot;font-size: 23px;&quot;&gt;PotionsForTheTrail_Completed_DialogueCluster&lt;/font&gt;" style="rounded=0;whiteSpace=wrap;html=1;" vertex="1" parent="1">
          <mxGeometry x="3300.19" y="210" width="500" height="30" as="geometry" />
        </mxCell>
        <mxCell id="ac3OttQ5r9UJf8FcVnDB-104" value="" style="rounded=0;whiteSpace=wrap;html=1;fillColor=#dae8fc;strokeColor=#6c8ebf;" vertex="1" parent="1">
          <mxGeometry x="2460" y="240" width="1340.19" height="960" as="geometry" />
        </mxCell>
        <mxCell id="ac3OttQ5r9UJf8FcVnDB-105" value="Alchemist_Npc_16" style="rounded=0;whiteSpace=wrap;html=1;" vertex="1" parent="1">
          <mxGeometry x="2660" y="320" width="170" height="20" as="geometry" />
        </mxCell>
        <mxCell id="ac3OttQ5r9UJf8FcVnDB-106" value="&lt;p data-pm-slice=&quot;1 1 []&quot;&gt;The scent of the Mending Sunbrew still lingers in the air and tickles my nostrils! You made it just right, quite impressive for a first- timer. This is just the basic healing draught, since you&#39;re such a good student, I might teach you some more advanced recipes sometime, if you&#39;d like. &lt;/p&gt;" style="rounded=0;whiteSpace=wrap;html=1;" vertex="1" parent="1">
          <mxGeometry x="2630" y="340" width="230" height="170" as="geometry" />
        </mxCell>
        <mxCell id="ac3OttQ5r9UJf8FcVnDB-107" value="" style="rounded=0;whiteSpace=wrap;html=1;" vertex="1" parent="1">
          <mxGeometry x="2625" y="580" width="240" height="580" as="geometry" />
        </mxCell>
        <mxCell id="ac3OttQ5r9UJf8FcVnDB-108" value="Alchemist_Player_17" style="rounded=0;whiteSpace=wrap;html=1;" vertex="1" parent="1">
          <mxGeometry x="2660" y="600" width="170" height="20" as="geometry" />
        </mxCell>
        <mxCell id="ac3OttQ5r9UJf8FcVnDB-109" value="Who&#39;s Master Bryggvar?" style="rounded=1;whiteSpace=wrap;html=1;" vertex="1" parent="1">
          <mxGeometry x="2637.5" y="620" width="215" height="50" as="geometry" />
        </mxCell>
        <mxCell id="ac3OttQ5r9UJf8FcVnDB-110" value="" style="endArrow=classic;html=1;rounded=0;exitX=0.5;exitY=1;exitDx=0;exitDy=0;entryX=0.5;entryY=0;entryDx=0;entryDy=0;" edge="1" parent="1" source="ac3OttQ5r9UJf8FcVnDB-106" target="ac3OttQ5r9UJf8FcVnDB-107">
          <mxGeometry width="50" height="50" relative="1" as="geometry">
            <mxPoint x="2920" y="480" as="sourcePoint" />
            <mxPoint x="2970" y="430" as="targetPoint" />
          </mxGeometry>
        </mxCell>
        <mxCell id="ac3OttQ5r9UJf8FcVnDB-111" value="" style="endArrow=classic;html=1;rounded=0;exitX=1;exitY=0.5;exitDx=0;exitDy=0;entryX=0;entryY=0.5;entryDx=0;entryDy=0;" edge="1" parent="1" source="ac3OttQ5r9UJf8FcVnDB-109" target="ac3OttQ5r9UJf8FcVnDB-114">
          <mxGeometry width="50" height="50" relative="1" as="geometry">
            <mxPoint x="2930" y="570" as="sourcePoint" />
            <mxPoint x="2950" y="650" as="targetPoint" />
          </mxGeometry>
        </mxCell>
        <mxCell id="ac3OttQ5r9UJf8FcVnDB-113" value="Alchemist_Npc_18" style="rounded=0;whiteSpace=wrap;html=1;" vertex="1" parent="1">
          <mxGeometry x="3020" y="560" width="170" height="20" as="geometry" />
        </mxCell>
        <mxCell id="ac3OttQ5r9UJf8FcVnDB-114" value="Only the greatest alchemist ever known! We were close... Oh yes... We shared more than just herbs and vials. I hope he is still out there, somewhere, reminiscing our nights by the campfire, just like I do... " style="rounded=0;whiteSpace=wrap;html=1;" vertex="1" parent="1">
          <mxGeometry x="2990" y="580" width="230" height="125" as="geometry" />
        </mxCell>
        <mxCell id="ac3OttQ5r9UJf8FcVnDB-116" value="" style="endArrow=classic;html=1;rounded=0;exitX=0.5;exitY=1;exitDx=0;exitDy=0;entryX=0.5;entryY=0;entryDx=0;entryDy=0;" edge="1" parent="1" source="ac3OttQ5r9UJf8FcVnDB-114" target="ac3OttQ5r9UJf8FcVnDB-117">
          <mxGeometry width="50" height="50" relative="1" as="geometry">
            <mxPoint x="3130" y="750" as="sourcePoint" />
            <mxPoint x="3180" y="700" as="targetPoint" />
          </mxGeometry>
        </mxCell>
        <mxCell id="ac3OttQ5r9UJf8FcVnDB-117" value="" style="rounded=0;whiteSpace=wrap;html=1;" vertex="1" parent="1">
          <mxGeometry x="2985" y="750" width="240" height="250" as="geometry" />
        </mxCell>
        <mxCell id="ac3OttQ5r9UJf8FcVnDB-118" value="Alchemist_Player_19" style="rounded=0;whiteSpace=wrap;html=1;" vertex="1" parent="1">
          <mxGeometry x="3020" y="770" width="170" height="20" as="geometry" />
        </mxCell>
        <mxCell id="ac3OttQ5r9UJf8FcVnDB-119" value="Where is he now?" style="rounded=1;whiteSpace=wrap;html=1;" vertex="1" parent="1">
          <mxGeometry x="2997.5" y="790" width="215" height="40" as="geometry" />
        </mxCell>
        <mxCell id="ac3OttQ5r9UJf8FcVnDB-120" value="Alchemist_Player_20" style="rounded=0;whiteSpace=wrap;html=1;" vertex="1" parent="1">
          <mxGeometry x="3020" y="850" width="170" height="20" as="geometry" />
        </mxCell>
        <mxCell id="ac3OttQ5r9UJf8FcVnDB-121" value="I don&#39;t think I want to know anything more..." style="rounded=1;whiteSpace=wrap;html=1;" vertex="1" parent="1">
          <mxGeometry x="2997.5" y="870" width="215" height="40" as="geometry" />
        </mxCell>
        <mxCell id="ac3OttQ5r9UJf8FcVnDB-122" value="" style="endArrow=classic;html=1;rounded=0;exitX=0;exitY=0.5;exitDx=0;exitDy=0;entryX=0.992;entryY=0.534;entryDx=0;entryDy=0;entryPerimeter=0;" edge="1" parent="1" source="ac3OttQ5r9UJf8FcVnDB-121" target="ac3OttQ5r9UJf8FcVnDB-107">
          <mxGeometry width="50" height="50" relative="1" as="geometry">
            <mxPoint x="2920" y="850" as="sourcePoint" />
            <mxPoint x="2970" y="800" as="targetPoint" />
            <Array as="points" />
          </mxGeometry>
        </mxCell>
        <mxCell id="ac3OttQ5r9UJf8FcVnDB-123" value="I&#39;m not sure... One morning his workshop stood empty. He vanished, and I searched every trail I could think of, asked every caravan that passed through. Found no footprints, no torn cloak, not even an empty bottle. &lt;br&gt; " style="rounded=0;whiteSpace=wrap;html=1;" vertex="1" parent="1">
          <mxGeometry x="3310" y="757.5" width="230" height="102.5" as="geometry" />
        </mxCell>
        <mxCell id="ac3OttQ5r9UJf8FcVnDB-124" value="&lt;div&gt;Alchemist_Npc_21&lt;/div&gt;" style="rounded=0;whiteSpace=wrap;html=1;" vertex="1" parent="1">
          <mxGeometry x="3340" y="737.5" width="170" height="20" as="geometry" />
        </mxCell>
        <mxCell id="ac3OttQ5r9UJf8FcVnDB-125" value="After a year of silence I packed my things, came here, and set up shop. Part of me still wonders if I should have stayed longer… just in case he ever came back." style="rounded=0;whiteSpace=wrap;html=1;" vertex="1" parent="1">
          <mxGeometry x="3310" y="917.5" width="230" height="85" as="geometry" />
        </mxCell>
        <mxCell id="ac3OttQ5r9UJf8FcVnDB-126" value="&lt;div&gt;Alchemist_Npc_22&lt;/div&gt;" style="rounded=0;whiteSpace=wrap;html=1;" vertex="1" parent="1">
          <mxGeometry x="3340" y="897.5" width="170" height="20" as="geometry" />
        </mxCell>
        <mxCell id="ac3OttQ5r9UJf8FcVnDB-127" value="" style="endArrow=classic;html=1;rounded=0;exitX=0.5;exitY=1;exitDx=0;exitDy=0;entryX=0.5;entryY=0;entryDx=0;entryDy=0;" edge="1" parent="1" source="ac3OttQ5r9UJf8FcVnDB-123" target="ac3OttQ5r9UJf8FcVnDB-126">
          <mxGeometry width="50" height="50" relative="1" as="geometry">
            <mxPoint x="3590" y="880" as="sourcePoint" />
            <mxPoint x="3640" y="830" as="targetPoint" />
          </mxGeometry>
        </mxCell>
        <mxCell id="ac3OttQ5r9UJf8FcVnDB-128" value="" style="endArrow=classic;html=1;rounded=0;exitX=1;exitY=0.5;exitDx=0;exitDy=0;entryX=0;entryY=0.5;entryDx=0;entryDy=0;" edge="1" parent="1" source="ac3OttQ5r9UJf8FcVnDB-119" target="ac3OttQ5r9UJf8FcVnDB-123">
          <mxGeometry width="50" height="50" relative="1" as="geometry">
            <mxPoint x="3350" y="670" as="sourcePoint" />
            <mxPoint x="3400" y="620" as="targetPoint" />
          </mxGeometry>
        </mxCell>
        <mxCell id="ac3OttQ5r9UJf8FcVnDB-129" value="Farewell." style="rounded=1;whiteSpace=wrap;html=1;" vertex="1" parent="1">
          <mxGeometry x="2637.5" y="1080" width="215" height="50" as="geometry" />
        </mxCell>
        <mxCell id="ac3OttQ5r9UJf8FcVnDB-130" value="&lt;div&gt;Alchemist_Player_23&lt;/div&gt;" style="rounded=0;whiteSpace=wrap;html=1;" vertex="1" parent="1">
          <mxGeometry x="2660" y="1060" width="170" height="20" as="geometry" />
        </mxCell>
      </root>
    </mxGraphModel>
  </diagram>
</mxfile>
